<svg width="256" height="256" viewBox="0 0 256 256" fill="none" xmlns="http://www.w3.org/2000/svg">
  <rect width="256" height="256" rx="64" fill="#161616"/>
  <path d="M34 218c23-38 57-57 94-57s72 19 94 57H34Z" fill="#ef4444" opacity=".24"/>
  <circle cx="131" cy="126" r="68" fill="#fafafa"/>
  <path d="M80 104c14-31 47-48 82-34 19 8 30 24 31 49-35-22-74-24-113-15Z" fill="#ef4444"/>
  <circle cx="104" cy="127" r="8" fill="#161616"/>
  <circle cx="152" cy="127" r="8" fill="#161616"/>
  <circle cx="86" cy="148" r="9" fill="#ef4444" opacity="0.22"/>
  <circle cx="170" cy="148" r="9" fill="#ef4444" opacity="0.22"/>
  <path d="M128 137v13" stroke="#161616" stroke-width="7" stroke-linecap="round"/>
  <path d="M86 188c26 18 58 18 84 0" stroke="#161616" stroke-width="7" stroke-linecap="round"/>
  <path d="M81 94c16-22 39-33 67-31 17 2 32 8 45 21" stroke="#facc15" stroke-width="7" stroke-linecap="round" opacity=".55"/>
  <rect x="89" y="181" width="78" height="28" rx="14" fill="#ef4444" opacity=".32"/>
  <path d="M194 42h31M187 58h38M201 74h24" stroke="#facc15" stroke-width="8" stroke-linecap="round" opacity=".45"/>
</svg>
