<svg width="256" height="256" viewBox="0 0 256 256" fill="none" xmlns="http://www.w3.org/2000/svg">
  <rect width="256" height="256" rx="64" fill="#120a16"/>
  <path d="M45 224c12-48 42-76 83-76s71 28 83 76H45Z" fill="#7f1d1d"/>
  <circle cx="128" cy="112" r="55" fill="#f8fafc"/>
  <path d="M78 101c11-42 36-61 71-54 25 5 41 23 48 49-25-9-48-7-69 5-19 10-35 10-50 0Z" fill="#020617"/>
  <circle cx="108" cy="121" r="6" fill="#120a16"/>
  <circle cx="148" cy="121" r="6" fill="#120a16"/>
  <path d="M113 145c10 7 20 7 30 0" stroke="#120a16" stroke-width="7" stroke-linecap="round"/>
  <path d="M116 150h9l-4 15-5-15Zm15 0h9l-5 15-4-15Z" fill="#f8fafc" stroke="#120a16" stroke-width="2"/>
  <path d="M83 150 48 205l61-28M173 150l35 55-61-28" fill="#020617"/>
</svg>
