<svg width="256" height="256" viewBox="0 0 256 256" fill="none" xmlns="http://www.w3.org/2000/svg">
  <rect width="256" height="256" rx="64" fill="#07111f"/>
  <path d="M0 178C54 120 93 143 133 88C171 36 217 39 256 8V256H0V178Z" fill="#13c8b7" opacity=".28"/>
  <path d="M0 38C44 22 78 46 115 91C156 141 197 139 256 104V0H0V38Z" fill="#f2c94c" opacity=".18"/>
  <circle cx="128" cy="112" r="43" fill="#e9f7ff"/>
  <path d="M72 215c8-43 35-70 56-70s48 27 56 70H72Z" fill="#e9f7ff"/>
  <path d="M84 88c9-33 35-53 68-45 19 5 34 18 44 38-29-4-49 4-70 18-18 12-31 13-42-11Z" fill="#111827"/>
  <circle cx="112" cy="112" r="5" fill="#07111f"/>
  <circle cx="144" cy="112" r="5" fill="#07111f"/>
  <path d="M113 133c10 8 20 8 30 0" stroke="#07111f" stroke-width="7" stroke-linecap="round"/>
</svg>
