<svg width="256" height="256" viewBox="0 0 256 256" fill="none" xmlns="http://www.w3.org/2000/svg">
  <rect width="256" height="256" rx="64" fill="#052e16"/>
  <path d="M80 103c3-37 30-65 69-63 35 2 59 30 60 67 1 39-28 72-68 75-44 3-65-30-61-79Z" fill="#4ade80"/>
  <path d="M113 42 102 22M139 42l7-23M164 54l22-15" stroke="#bbf7d0" stroke-width="10" stroke-linecap="round"/>
  <circle cx="113" cy="115" r="7" fill="#052e16"/>
  <circle cx="155" cy="115" r="7" fill="#052e16"/>
  <path d="M119 139c10 7 22 7 32 0" stroke="#052e16" stroke-width="7" stroke-linecap="round"/>
  <path d="M72 224c10-36 33-57 56-57s46 21 56 57H72Z" fill="#4ade80"/>
  <path d="M185 116c16 6 27 21 27 39" stroke="#4ade80" stroke-width="18" stroke-linecap="round"/>
</svg>
