<svg width="256" height="256" viewBox="0 0 256 256" fill="none" xmlns="http://www.w3.org/2000/svg">
  <rect width="256" height="256" rx="64" fill="#1e1b4b"/>
  <circle cx="128" cy="119" r="56" fill="#ffe4e6"/>
  <path d="M70 104c8-45 38-70 75-62 30 6 49 29 51 64-25-12-48-12-70 1-22 13-40 12-56-3Z" fill="#f472b6"/>
  <path d="M83 98c10 20 6 40-12 60 36-12 54-32 55-60" fill="#f472b6"/>
  <ellipse cx="108" cy="125" rx="8" ry="12" fill="#1e1b4b"/>
  <ellipse cx="148" cy="125" rx="8" ry="12" fill="#1e1b4b"/>
  <circle cx="105" cy="121" r="3" fill="#f8fafc"/>
  <circle cx="145" cy="121" r="3" fill="#f8fafc"/>
  <path d="M116 150c8 7 16 7 24 0" stroke="#1e1b4b" stroke-width="6" stroke-linecap="round"/>
  <path d="M68 224c10-39 34-62 60-62s50 23 60 62H68Z" fill="#f472b6"/>
</svg>
