<svg width="256" height="256" viewBox="0 0 256 256" fill="none" xmlns="http://www.w3.org/2000/svg">
  <rect width="256" height="256" rx="64" fill="#111827"/>
  <path d="M34 218c23-38 57-57 94-57s72 19 94 57H34Z" fill="#f59e0b" opacity=".24"/>
  <circle cx="131" cy="126" r="68" fill="#fff7ed"/>
  <path d="M73 119c5-45 31-71 70-65 23 4 39 22 43 54-33-23-68-20-113 11Z" fill="#f59e0b"/>
  <circle cx="104" cy="127" r="8" fill="#111827"/>
  <circle cx="152" cy="127" r="8" fill="#111827"/>
  <circle cx="86" cy="148" r="9" fill="#f59e0b" opacity="0.3"/>
  <circle cx="170" cy="148" r="9" fill="#f59e0b" opacity="0.3"/>
  <path d="M128 137v13" stroke="#111827" stroke-width="7" stroke-linecap="round"/>
  <path d="M91 184c19 15 55 15 74 0" stroke="#111827" stroke-width="7" stroke-linecap="round"/>
  <path d="M81 94c16-22 39-33 67-31 17 2 32 8 45 21" stroke="#34d399" stroke-width="7" stroke-linecap="round" opacity=".55"/>
  <rect x="89" y="181" width="78" height="28" rx="14" fill="#f59e0b" opacity=".32"/>
  <path d="M194 42h31M187 58h38M201 74h24" stroke="#34d399" stroke-width="8" stroke-linecap="round" opacity=".45"/>
</svg>
